<svg xmlns="http://www.w3.org/2000/svg" viewBox="0 0 340 244" width="660" role="img" aria-label="위아래로 두 칸이 있다. 위 칸의 울퉁불퉁한 선은 가운데가 아래로 파여 있고, 아래 칸의 선은 비슷하게 울퉁불퉁하지만 파인 곳이 없다.">
<rect width="340" height="244" fill="#0b1220"/>
<text x="170" y="20" text-anchor="middle" fill="#ffe0b8" font-family="system-ui, sans-serif" font-size="13" font-weight="600">같은 자리를 두 쪽이 다르게 읽습니다</text>
<path d="M 74.0 81.0 L 78.9 80.7 L 83.7 79.8 L 88.6 78.7 L 93.5 77.8 L 98.3 77.3 L 103.2 77.2 L 108.0 77.3 L 112.9 77.5 L 117.8 77.4 L 122.6 77.0 L 127.5 76.4 L 132.4 76.1 L 137.2 76.2 L 142.1 76.9 L 147.0 78.1 L 151.8 79.6 L 156.7 80.9 L 161.5 82.0 L 166.4 84.3 L 171.3 90.2 L 176.1 99.0 L 181.0 102.8 L 185.9 96.2 L 190.7 85.4 L 195.6 78.7 L 200.5 76.9 L 205.3 77.3 L 210.2 78.0 L 215.0 78.3 L 219.9 78.4 L 224.8 78.2 L 229.6 78.3 L 234.5 78.6 L 239.4 79.2 L 244.2 79.9 L 249.1 80.3 L 254.0 80.2 L 258.8 79.4 L 263.7 78.0 L 268.5 76.4 L 273.4 75.1 L 278.3 74.5 L 283.1 74.8 L 288.0 75.9" fill="none" stroke="#8fd8b0" stroke-width="1.8"/>
<text x="66" y="82" text-anchor="end" fill="#8fd8b0" font-family="system-ui, sans-serif" font-size="10" font-weight="600">찾았다는 쪽</text>
<text x="181.0" y="124" text-anchor="middle" fill="#cfe0f5" font-family="system-ui, sans-serif" font-size="9" font-weight="400">이 파임이 포스핀의 자국이다</text>
<path d="M 74.0 156.9 L 78.9 156.0 L 83.7 155.6 L 88.6 155.5 L 93.5 155.7 L 98.3 155.7 L 103.2 155.5 L 108.0 154.9 L 112.9 154.3 L 117.8 153.8 L 122.6 153.9 L 127.5 154.6 L 132.4 155.9 L 137.2 157.4 L 142.1 158.8 L 147.0 159.5 L 151.8 159.3 L 156.7 158.3 L 161.5 156.7 L 166.4 155.2 L 171.3 154.0 L 176.1 153.5 L 181.0 153.7 L 185.9 154.3 L 190.7 155.1 L 195.6 155.7 L 200.5 156.0 L 205.3 156.0 L 210.2 155.9 L 215.0 156.0 L 219.9 156.4 L 224.8 157.2 L 229.6 158.0 L 234.5 158.5 L 239.4 158.5 L 244.2 157.7 L 249.1 156.3 L 254.0 154.7 L 258.8 153.3 L 263.7 152.6 L 268.5 152.7 L 273.4 153.7 L 278.3 155.1 L 283.1 156.6 L 288.0 157.7" fill="none" stroke="#e0a0a0" stroke-width="1.8"/>
<text x="66" y="160" text-anchor="end" fill="#e0a0a0" font-family="system-ui, sans-serif" font-size="10" font-weight="600">아니라는 쪽</text>
<text x="181.0" y="202" text-anchor="middle" fill="#cfe0f5" font-family="system-ui, sans-serif" font-size="9" font-weight="400">다듬는 방법을 바꾸면 파임이 사라진다</text>
<line x1="181.0" y1="60" x2="181.0" y2="168" stroke="#4d6ea8" stroke-width="0.9" stroke-dasharray="4 4"/>
<text x="181.0" y="54" text-anchor="middle" fill="#9fb8d8" font-family="system-ui, sans-serif" font-size="9" font-weight="400">포스핀이 빛을 삼킨다는 자리</text>
<text x="170" y="220" text-anchor="middle" fill="#cfe0f5" font-family="system-ui, sans-serif" font-size="9" font-weight="400">관측 자료는 하나인데 읽는 방법이 달라 답이 갈렸어요</text>
<text x="170" y="234" text-anchor="middle" fill="#8fa3bf" font-family="system-ui, sans-serif" font-size="8" font-weight="400">선의 모양은 다툼의 뜻을 보이려고 그린 것이고 실제 관측값이 아닙니다</text>
</svg>
